HIERARCHY
ROOT Hips
{
  OFFSET -32.5998 29.0326 120.673
  CHANNELS 6 Xposition Yposition Zposition Zrotation Xrotation Yrotation
  JOINT LeftUpLeg
  {
    OFFSET 8.64259 1.95398 -2.38835
    CHANNELS 3 Zrotation Xrotation Yrotation
    JOINT LeftLeg
    {
      OFFSET 43.7702 0 0
      CHANNELS 3 Zrotation Xrotation Yrotation
      JOINT LeftFoot
      {
        OFFSET 40.6238 0 0
        CHANNELS 3 Zrotation Xrotation Yrotation
        JOINT LeftToeBase
        {
          OFFSET 12.7242 0 0
          CHANNELS 3 Zrotation Xrotation Yrotation
          End Site
          {
            OFFSET 0 0 0
          }
        }
      }
    }
  }
  JOINT RightUpLeg
  {
    OFFSET -8.2249 1.95398 -2.59336
    CHANNELS 3 Zrotation Xrotation Yrotation
    JOINT RightLeg
    {
      OFFSET 43.5653 0 0
      CHANNELS 3 Zrotation Xrotation Yrotation
      JOINT RightFoot
      {
        OFFSET 40.6238 0 0
        CHANNELS 3 Zrotation Xrotation Yrotation
        JOINT RightToeBase
        {
          OFFSET 12.7242 0 0
          CHANNELS 3 Zrotation Xrotation Yrotation
          End Site
          {
            OFFSET 0 0 0
          }
        }
      }
    }
  }
  JOINT Spine
  {
    OFFSET 0.165834 0.87714 6.61349
    CHANNELS 3 Zrotation Xrotation Yrotation
    JOINT Spine1
    {
      OFFSET 7.38963 1.71661e-005 0
      CHANNELS 3 Zrotation Xrotation Yrotation
      JOINT Spine2
      {
        OFFSET 11.9445 1.14441e-005 0
        CHANNELS 3 Zrotation Xrotation Yrotation
        JOINT Spine3
        {
          OFFSET 14.7254 4.19617e-005 0
          CHANNELS 3 Zrotation Xrotation Yrotation
          JOINT Spine4
          {
            OFFSET 10.9679 0 0
            CHANNELS 3 Zrotation Xrotation Yrotation
            JOINT RightShoulder
            {
              OFFSET 2.46616 -1.6653 3.69651
              CHANNELS 3 Zrotation Xrotation Yrotation
              JOINT RightArm
              {
                OFFSET 13.0012 0 0
                CHANNELS 3 Zrotation Xrotation Yrotation
                JOINT RightForeArm
                {
                  OFFSET 28.7848 1.62311e-005 0
                  CHANNELS 3 Zrotation Xrotation Yrotation
                  JOINT RightHand
                  {
                    OFFSET 26.5688 1.62095e-005 0
                    CHANNELS 3 Zrotation Xrotation Yrotation
                    End Site
                    {
                      OFFSET 0 0 0
                    }
                  }
                }
              }
            }
            JOINT LeftShoulder
            {
              OFFSET 2.38034 -1.29275 -3.7523
              CHANNELS 3 Zrotation Xrotation Yrotation
              JOINT LeftArm
              {
                OFFSET 16.3182 6.07031e-005 0
                CHANNELS 3 Zrotation Xrotation Yrotation
                JOINT LeftForeArm
                {
                  OFFSET 27.0901 0 0
                  CHANNELS 3 Zrotation Xrotation Yrotation
                  JOINT LeftHand
                  {
                    OFFSET 24.5451 1.51738e-005 0
                    CHANNELS 3 Zrotation Xrotation Yrotation
                    End Site
                    {
                      OFFSET 0 0 0
                    }
                  }
                }
              }
            }
            JOINT Neck
            {
              OFFSET 5.0226 -0.0266342 0
              CHANNELS 3 Zrotation Xrotation Yrotation
              JOINT Head
              {
                OFFSET 6.69364 2.86102e-005 0
                CHANNELS 3 Zrotation Xrotation Yrotation
                End Site
                {
                  OFFSET 0 0 0
                }
              }
            }
          }
        }
      }
    }
  }
}
MOTION
Frames:	15
Frame Time:	0.0416667
-252.739 87.0865 -211.737 92.9029 13.4418 92.9371 176.283 15.3185 99.062 -71.3471 49.6649 15.7672 96.3155 25.7785 -0.577934 20.4882 -3.34292 -0.271172 154.528 -20.138 105.866 -80.4921 7.21706 27.6468 70.1385 -7.21255 -2.91621 14.9082 2.58123 9.99463 -4.26302 9.43618 -90.935 7.95518 -8.91844 -1.35238 -3.68522 -8.9693 -0.955414 -26.4277 -8.09726 -3.98662 -6.41509 -8.09725 -3.98663 91.4174 -27.0253 -105.004 19.3305 42.0738 4.96608 43.4391 -13.1896 -92.2738 -47.7039 20.7705 -50.7688 -87.8954 -36.1423 78.977 -5.56042 18.4947 -26.4702 151.784 19.1096 -80.5952 21.4109 -14.6135 -66.7352 26.5889 -8.01945 -12.1065 -5.76018 -3.22374 0.931891 
-248.511 88.5544 -209.045 92.5788 12.6665 93.4668 176.02 8.1074 101.407 -61.439 47.3679 15.691 99.4605 25.5868 -3.11021 20.3172 -4.72284 2.29462 145.555 -10.4565 98.2736 -89.5683 0.66649 17.7755 74.7696 -7.72489 -4.18221 21.6973 -1.85095 16.7719 -4.732 9.40272 -90.9687 8.01834 -9.86968 -1.35889 -3.61499 -9.91979 -0.9189 -26.408 -9.00156 -4.28512 -6.39538 -9.00157 -4.28513 91.9037 -26.2475 -104.271 24.063 36.9337 2.69323 42.689 -14.4124 -95.2594 -45.8953 19.6161 -50.174 -87.3977 -34.7475 79.5264 -6.1582 19.2649 -25.6685 148.588 23.2684 -79.0876 20.6562 -14.1559 -66.7771 26.4816 -5.69519 -11.0536 -6.9352 -1.37691 0.310115 
-244.762 90.2936 -206.261 90.7047 7.0407 95.9817 -179.342 2.04812 105.179 -47.4072 43.5014 12.085 98.0956 24.4169 -3.95465 24.0536 -2.81107 1.8628 144.191 0.00947536 98.5311 -94.4574 -1.74682 9.79865 80.309 -10.1747 -6.50156 39.963 -6.82142 15.1776 -4.47596 9.21441 -91.298 8.37286 -9.50474 -1.98258 -3.26387 -9.5827 -1.55862 -26.0214 -8.46693 -4.7654 -6.00875 -8.46694 -4.7654 92.8853 -25.8231 -102.325 26.662 30.6097 0.811266 39.124 -14.6481 -98.8422 -45.4846 18.4111 -48.0183 -88.2753 -35.347 78.1013 -4.23119 20.6621 -26.4224 143.238 28.6168 -76.9168 19.8532 -13.619 -66.6246 25.5448 -3.38355 -9.1933 -6.84413 0.0723014 0.450042 
-241.556 92.1202 -203.604 89.3087 -0.694491 97.9207 -173.33 -2.54775 108.595 -36.6607 41.8568 8.72302 88.9208 21.7659 0.948185 32.9597 2.05008 -1.17397 146.659 12.919 99.4994 -95.3409 -2.01327 5.39334 85.0073 -13.7413 -10.3578 34.4919 -4.94985 13.5323 -4.15806 9.07869 -91.5601 8.62192 -8.98719 -2.51033 -3.01936 -9.08888 -2.10934 -25.7362 -7.81585 -5.10828 -5.72357 -7.81586 -5.10827 93.0555 -24.3421 -102.474 29.4357 23.6454 -1.04529 33.6583 -13.1835 -102.367 -45.4877 16.6817 -44.2812 -87.809 -36.0716 79.1134 -3.00841 22.2973 -25.8267 139.105 32.8284 -73.7966 18.9153 -13.0176 -66.5453 25.9792 -0.497962 -6.06939 -9.11739 1.76419 -0.339117 
-237.923 93.7181 -200.736 90.3774 -9.66771 99.0995 -167.821 -8.06465 109.795 -30.2071 39.7053 6.18598 77.9993 16.0323 4.25423 42.6007 5.04407 1.32766 152.444 22.739 100.417 -92.3427 -1.2411 2.97961 85.9914 -14.7725 -11.8753 20.0691 -0.0659752 12.374 -3.61385 9.12765 -91.5897 8.5273 -7.91371 -2.64623 -3.12142 -8.02242 -2.29342 -25.7855 -6.75204 -4.90983 -5.7729 -6.75206 -4.90983 93.2223 -24.1987 -102.155 30.7534 15.9471 -1.96439 24.3379 -9.49707 -106.423 -45.7563 13.4903 -36.9199 -87.7902 -35.3999 78.9811 -4.48024 23.1489 -24.5659 135.639 35.7683 -71.0989 18.3233 -12.6413 -66.4951 26.893 1.61606 -4.95495 -12.0502 3.32275 1.09956 
-233.842 94.7549 -197.343 90.825 -19.5519 99.4195 -164.386 -13.4084 108.945 -23.6352 34.2254 3.59391 66.2958 8.0467 4.49322 54.7191 9.21469 3.81016 159.994 32.5101 101.259 -86.6955 3.85168 1.81866 85.4138 -12.7035 -8.24743 22.4842 -0.166692 9.98392 -3.01126 9.02168 -91.6027 8.74785 -6.71932 -2.72961 -2.90799 -6.83288 -2.43016 -25.5234 -5.58847 -4.62631 -5.51076 -5.58847 -4.62631 93.0786 -23.6411 -102.669 31.6784 7.94323 -2.04755 18.3961 -4.42615 -107.874 -42.0961 9.13553 -28.9334 -88.206 -36.1695 78.4335 -4.73459 24.1509 -22.934 132.773 39.1724 -68.8531 17.8825 -12.2856 -66.1424 26.2959 4.46968 -2.42746 -13.101 5.09378 1.0799 
-228.794 95.4473 -193.212 89.5837 -30.3461 98.445 -164.561 -17.8364 105.074 -19.0078 26.6432 1.91435 54.519 -0.655427 3.59161 56.3331 11.4676 -6.38642 168.355 40.5747 101.723 -77.6157 6.54541 0.842763 83.5441 -10.9017 -4.85588 21.8003 0.230053 9.47108 -2.32995 8.74419 -91.5561 9.3199 -5.34466 -2.69327 -2.34229 -5.45798 -2.45497 -24.9174 -4.28854 -4.17604 -4.90476 -4.28854 -4.17604 92.7813 -23.3524 -103.441 32.0826 -0.174965 -2.63864 13.253 1.68785 -106.58 -34.7014 3.25844 -15.4808 -88.2091 -36.0663 78.4019 -5.72121 25.1564 -21.3912 130.05 42.4476 -66.6661 17.4904 -11.997 -65.9319 25.7017 6.96608 -0.321835 -14.7088 6.68547 1.25597 
-223.234 95.8713 -188.481 85.4025 -39.2692 95.6865 -169.21 -18.2947 98.3299 -19.9806 18.1947 2.66077 49.7495 -5.36728 1.1873 24.8035 -0.047368 -4.5099 175.035 46.7358 101.959 -65.2197 5.41423 0.268517 81.3378 -10.5056 -3.432 19.8618 1.1607 8.78642 -1.81351 8.26693 -91.6628 10.2782 -4.37294 -2.92451 -1.38826 -4.49736 -2.72908 -23.9339 -3.29256 -4.10322 -3.92129 -3.29254 -4.10321 92.652 -22.2019 -104.173 31.9737 -7.29263 -3.52614 9.57861 6.79008 -103.501 -25.6883 -1.20005 0.354208 -88.4643 -37.1614 78.2304 -6.40794 24.355 -19.396 126.835 43.7384 -64.9806 17.2027 -11.7541 -65.635 24.756 9.67795 2.56984 -16.2678 8.3029 0.98012 
-216.978 96.136 -183.422 81.1473 -44.9957 92.1525 -173.076 -17.2762 92.2866 -23.9962 13.2476 3.44662 51.5692 -5.9101 0.06085 12.8972 -6.69561 -0.310993 179.432 49.0821 101.404 -51.6416 -0.700689 -0.0369614 77.3469 -9.63619 -3.78446 19.6638 1.53627 7.87 -1.55482 7.91354 -91.7215 10.9878 -3.89237 -3.05416 -0.680481 -4.02294 -2.87984 -23.2141 -2.79532 -4.08208 -3.20146 -2.79532 -4.08208 92.337 -22.2091 -104.884 29.9022 -11.168 -5.09861 8.63439 9.12592 -101.55 -21.5686 -2.12235 6.20562 -88.137 -36.5638 78.6542 -8.46593 23.4587 -18.5202 125.265 45.2304 -64.4939 16.9645 -11.5581 -65.4056 23.9951 11.8483 3.78555 -17.0317 9.92955 1.58021 
-210.655 95.9222 -177.88 79.2326 -47.7549 90.5754 -173.108 -17.2115 90.2727 -29.5859 15.8 2.19628 55.7146 -3.61674 2.60266 18.9045 -3.87275 -0.551609 -178.623 47.8307 101.248 -39.1398 -8.38321 0.181977 73.8165 -8.72721 -4.44017 22.4367 0.689926 7.16534 -1.52359 7.81516 -91.837 11.1792 -3.88596 -3.27674 -0.489668 -4.02634 -3.10254 -23.0178 -2.7225 -4.29222 -3.00513 -2.7225 -4.29223 92.0257 -22.5871 -105.433 26.9945 -12.4463 -7.61793 7.61686 10.0501 -100.737 -20.3277 -2.00778 6.26753 -87.6534 -37.1336 79.641 -8.67649 22.6827 -19.2256 125.942 47.2928 -66.0191 16.6467 -11.3927 -65.5186 23.48 13.2917 4.96135 -17.1415 10.9085 1.94603 
-204.708 95.4381 -172.506 79.7454 -49.8497 89.5473 -173.278 -18.3935 87.7429 -33.9712 16.564 0.495869 57.274 -2.37944 0.972932 24.0886 -2.27759 0.733728 -178.223 45.361 101.126 -31.7238 -13.725 0.427724 73.4501 -8.57491 -2.33791 22.7677 0.666907 6.8213 -1.50648 7.83811 -91.7379 11.1394 -3.80556 -3.08885 -0.529287 -3.93774 -2.91835 -23.0606 -2.70212 -4.08903 -3.04796 -2.70211 -4.08902 91.676 -23.7144 -105.746 24.2442 -13.5511 -9.99822 7.84806 10.8004 -99.6928 -20.2224 -2.20728 7.47825 -88.2264 -39.5249 79.2126 -6.62857 22.417 -19.1116 123.147 47.6742 -64.2058 16.4773 -11.2831 -65.484 22.0189 14.1996 6.18041 -16.4148 11.5617 1.31776 
-198.827 94.6745 -167.117 81.7342 -51.5898 89.3164 -172.448 -18.4336 85.9026 -41.2382 15.6021 -1.34076 56.0948 -3.37593 -0.757603 29.0763 0.309164 -0.471899 -178.688 42.511 101.37 -29.1533 -14.2487 0.771406 72.0105 -7.47574 -1.66882 25.2569 -0.375752 7.10334 -1.48795 7.8705 -91.5546 11.0836 -3.68289 -2.73831 -0.584686 -3.79982 -2.57352 -23.1218 -2.69024 -3.71814 -3.10919 -2.69023 -3.71813 90.8985 -24.5695 -107.085 22.2274 -13.4064 -11.3617 7.07922 11.5376 -97.8447 -18.1136 -2.01597 7.77321 -88.6572 -42.4047 79.1534 -4.0842 21.3536 -18.9019 123.361 47.3807 -65.9786 16.2448 -11.1738 -65.6224 18.3149 14.8629 8.30283 -14.6532 12.0021 -0.0696398 
-192.84 93.8156 -161.554 84.574 -53.2954 90.9238 -169.644 -17.0613 86.5807 -51.2405 11.7535 -2.89944 53.9494 -5.27823 -0.746816 34.0375 3.62607 -4.49194 -179.696 38.8483 102.623 -29.7962 -10.0282 1.51565 70.9797 -6.5112 -1.57697 27.3974 -0.998148 6.35134 -1.29308 7.98938 -91.4165 10.8548 -3.2289 -2.51526 -0.814247 -3.33646 -2.37071 -23.3487 -2.32416 -3.36903 -3.33608 -2.32416 -3.36903 90.3691 -25.3124 -107.904 21.0541 -11.0009 -12.8915 8.77824 10.7983 -95.7413 -20.3145 -2.03862 6.45798 -88.708 -43.3507 79.2845 -2.33027 20.9184 -20.3984 123.07 47.2832 -67.5023 16.1447 -11.1349 -65.7203 15.612 14.197 8.01346 -13.9893 11.6611 -0.0328086 
-186.885 92.7937 -156.151 87.602 -54.4568 93.1307 -165.947 -14.4603 88.4802 -62.2532 7.13417 -3.65741 57.4751 -3.53071 2.31714 28.7074 1.44947 -3.67625 179.669 34.6519 103.173 -32.0629 -8.92746 1.86094 70.5982 -6.14956 -2.09176 25.436 -0.0446566 5.64664 -1.02222 8.07695 -91.3592 10.6858 -2.66161 -2.45938 -0.984508 -2.76725 -2.33988 -23.5125 -1.79984 -3.14519 -3.49986 -1.79983 -3.1452 89.8321 -25.4352 -108.991 20.1871 -8.75243 -14.0271 8.29772 10.7974 -93.528 -18.6593 -1.74306 5.69729 -88.6984 -44.7578 79.6068 -0.41212 19.3148 -22.8294 125.464 46.6721 -72.5308 16.1452 -11.2004 -66.0168 13.0183 13.5785 8.62554 -13.6703 11.1719 -0.577033 
-181.334 92.0233 -150.749 89.6294 -55.2403 95.5111 -161.415 -9.52143 91.5813 -73.0464 0.706823 -3.12565 61.4374 -1.06126 4.25646 27.34 0.728201 -3.10943 177.866 33.5494 104.238 -39.4329 -12.8358 2.85448 68.7388 -4.19042 -4.06265 12.7423 4.13194 8.09712 -0.607565 8.12405 -91.4215 10.597 -1.8636 -2.65744 -1.07513 -1.97873 -2.5729 -23.5923 -0.97923 -3.09428 -3.57966 -0.97923 -3.09428 89.5064 -24.8961 -109.927 19.1501 -6.14772 -15.8982 8.22142 10.7089 -91.3761 -17.2544 -1.54741 5.2261 -89.0145 -46.5843 79.5028 2.45018 17.0498 -26.4493 130.035 45.8516 -80.056 16.0894 -11.3198 -66.7176 10.7594 11.915 9.05876 -13.5116 9.66392 -0.918432 
